<?xml version="1.0"?>
<svg width="640" height="480" xmlns="http://www.w3.org/2000/svg" xmlns:svg="http://www.w3.org/2000/svg">
 <g class="layer">
  <title>Layer 1</title>

  <path d="m11.37,256l55.5,-37.5l55.5,37.5l-55.5,37.5l-55.5,-37.5z" fill="rgb(159.5, 206.5, 255)" id="svg_2" stroke="#000000"/>
  <path d="m11.37,256l55.5,-37.5l55.5,37.5l-55.5,37.5l-55.5,-37.5z" fill="rgb(159.5, 206.5, 255)" id="svg_2" stroke="#000000"/>


  <text fill="#000000" font-family="Serif" font-size="24" id="svg_3" stroke="#000000" stroke-width="0" text-anchor="middle" transform="matrix(0.70823 0 0 0.707242 39.7721 21.6594)" x="38.91" xml:space="preserve" y="341.22">前端界面</text>
  <line fill="none" id="svg_26" stroke="#000000" transform="matrix(1 0 0 1 0 0)" x1="137.68" x2="241.68" y1="269.33" y2="270.33"/>
  <path d="m138.06,269.91l-13.37,-18l24.04,18l-24.04,18l13.37,-18z" fill="none" id="svg_25" stroke="#000000" transform="matrix(1 0 0 1 0 0) rotate(178.686 136.714 269.91)"/>
  <text fill="#000000" font-family="Serif" font-size="24" id="svg_24" stroke="#000000" stroke-width="0" text-anchor="middle" transform="matrix(1 0 0 1 0 0) matrix(0.58731 0 0 0.743094 137.509 55.8078)" x="103.31" xml:space="preserve" y="309.96">服务器到前端</text>
  <line fill="none" id="svg_23" stroke="#FF0000" transform="matrix(1 0 0 1 0 0)" x1="127.4" x2="237.4" y1="244.83" y2="245.83"/>
  <path d="m240.78,246.41l-13.37,-18l24.04,18l-24.04,18l13.37,-18z" fill="none" id="svg_22" stroke="#FF0000" transform="matrix(1 0 0 1 0 0)"/>
  <text fill="#000000" font-family="Serif" font-size="24" id="svg_21" stroke="#000000" stroke-width="0" text-anchor="middle" transform="matrix(1 0 0 1 0 0) matrix(0.58731 0 0 0.743094 137.509 55.8078)" x="75.59" xml:space="preserve" y="244.68">前端到服务器</text>


  <line fill="none" id="svg_20" stroke="#000000" transform="matrix(1 0 0 1 0 0)" x1="390.14" x2="498.8" y1="313.36" y2="382.61"/>
  <path d="m488,389.48l20.69,8.65l-29.86,-3.2l11.48,-27.75l-2.3,22.3l-0.01,0z" fill="none" id="svg_19" stroke="#000000" transform="matrix(1 0 0 1 0 0) rotate(-119.757 493.764 382.657)"/>
  <text fill="#000000" font-family="Serif" font-size="24" id="svg_18" stroke="#000000" stroke-width="0" text-anchor="middle" transform="matrix(1 0 0 1 0 0) rotate(33.255 434.638 365.091) matrix(0.58731 0 0 0.743094 137.509 55.8078)" x="505.91" xml:space="preserve" y="424.17">服务器到RAG客户端B</text>
  <line fill="none" id="svg_17" stroke="#000000" transform="matrix(1 0 0 1 0 0) rotate(32.5157 458.134 328.181)" x1="379.51" x2="536.76" y1="328.54" y2="327.82"/>
  <path d="m394,293.95l20.69,8.65l-29.86,-3.2l11.48,-27.75l-2.3,22.3l-0.01,0z" fill="none" id="svg_16" stroke="#000000" transform="matrix(1 0 0 1 0 0) rotate(67.3303 399.764 287.126)"/>
  <text fill="#000000" font-family="Serif" font-size="24" id="svg_15" stroke="#000000" stroke-width="0" text-anchor="middle" transform="matrix(1 0 0 1 0 0) rotate(33.1368 484.638 328.561) matrix(0.58731 0 0 0.743094 137.509 55.8078)" x="591.05" xml:space="preserve" y="375.01">RAG客户端B到服务器</text>

  <path d="m245.85,262.58l71.5,-53.5l71.5,53.5l-71.5,53.5l-71.5,-53.5z" fill="rgb(159.5, 206.5, 255)" id="svg_14" stroke="#000000" transform="matrix(1 0 0 1 0 0)"/>
  <path d="m245.85,262.58l71.5,-53.5l71.5,53.5l-71.5,53.5l-71.5,-53.5z" fill="rgb(159.5, 206.5, 255)" id="svg_14" stroke="#000000" transform="matrix(1 0 0 1 0 0)"/>

  <text fill="#000000" font-family="Serif" font-size="24" id="svg_13" stroke="#000000" stroke-width="0" text-anchor="middle" transform="matrix(1 0 0 1 0 0)" x="317.81" xml:space="preserve" y="273.91">服务器</text>

  <path d="m482.76,77.62l62.5,-38l62.5,38l-62.5,38l-62.5,-38z" fill="rgb(159.5, 206.5, 255)" id="svg_12" stroke="#000000" transform="matrix(1 0 0 1 0 0)"/>
  <path d="m482.76,77.62l62.5,-38l62.5,38l-62.5,38l-62.5,-38z" fill="rgb(159.5, 206.5, 255)" id="svg_12" stroke="#000000" transform="matrix(1 0 0 1 0 0)"/>

  <text fill="#000000" font-family="Serif" font-size="24" id="svg_11" stroke="#000000" stroke-width="0" text-anchor="middle" transform="matrix(1 0 0 1 0 0) matrix(0.558211 0 0 0.773608 213.308 114.524)" x="597.42" xml:space="preserve" y="-38.73">RAG客户端A</text>
  <line fill="none" id="svg_10" stroke="#000000" transform="matrix(1 0 0 1 0 0) rotate(-41.0159 425.391 156.927)" x1="341.1" x2="509.68" y1="156.43" y2="157.43"/>
  <path d="m480.12,113.92l20.69,8.65l-29.86,-3.2l11.48,-27.75l-2.3,22.3l-0.01,0z" fill="none" id="svg_9" stroke="#000000" transform="matrix(1 0 0 1 0 0) rotate(174.371 485.883 107.1)"/>
  <text fill="#000000" font-family="Serif" font-size="24" id="svg_8" stroke="#000000" stroke-width="0" text-anchor="middle" transform="matrix(1 0 0 1 0 0) rotate(-41.0147 415.921 143.535) matrix(0.58731 0 0 0.743094 137.509 55.8078)" x="473.76" xml:space="preserve" y="126.02">服务器到RAG客户端A</text>
  <line fill="none" id="svg_7" stroke="#000000" transform="matrix(1 0 0 1 0 0) rotate(-40.9308 436.527 181.591)" x1="361.17" x2="511.89" y1="181.57" y2="181.61"/>
  <path d="m-114.79,206.95l-13.37,-18l24.04,18l-24.04,18l13.37,-18z" fill="none" id="svg_6" stroke="#000000" transform="matrix(1 0 0 1 0 0) rotate(-5.6214 378.056 233.17) matrix(-0.859772 0.510678 -0.510678 -0.859772 383.89 470.407)"/>
  <text fill="#000000" font-family="Serif" font-size="24" id="svg_5" stroke="#000000" stroke-width="0" text-anchor="middle" transform="matrix(1 0 0 1 0 0) rotate(-41.8131 455.526 184.47) matrix(0.58731 0 0 0.743094 137.509 55.8078)" x="541.48" xml:space="preserve" y="181.11">RAG客户端A到服务器</text>

  <path d="m498.3,405.38l62.5,-38l62.5,38l-62.5,38l-62.5,-38z" fill="rgb(159.5, 206.5, 255)" id="svg_4" stroke="#000000" transform="matrix(1 0 0 1 0 0)"/>
  <path d="m498.3,405.38l62.5,-38l62.5,38l-62.5,38l-62.5,-38z" fill="rgb(159.5, 206.5, 255)" id="svg_4" stroke="#000000" transform="matrix(1 0 0 1 0 0)"/>

  <text fill="#000000" font-family="Serif" font-size="24" id="svg_1" stroke="#000000" stroke-width="0" text-anchor="middle" transform="matrix(1 0 0 1 0 0) matrix(0.558211 0 0 0.773608 228.851 442.287)" x="597.42" xml:space="preserve" y="-38.73">RAG客户端B</text>
 </g>
</svg>